name processed_emg_signals
nRows=90
nColumns=7
 
endheader
time	RGLTMED	RRF	RADDLONG	RST	RTA	RGM
1.455	0.0572243017260872	0.2106321279399489	0.9873639676518196	0.0387459225873929	0.1951912047548984	0.0529057736596052
1.456	0.0571565106719784	0.2106726104963006	0.9884051196776802	0.0386768253304142	0.1976593565021613	0.0531827333446216
1.457	0.0570772858292939	0.2107070331742822	0.9894336382805364	0.0386157743196049	0.2001179580972024	0.0534400934833706
1.458	0.0569866967772636	0.210735377463077	0.9904447731314108	0.0385627983473366	0.2025662792748722	0.0536780676920205
1.459	0.0568848262141095	0.2107576356760642	0.991433643863397	0.0385179173380444	0.2050035939626018	0.0538968890762509
1.46	0.0567717696203584	0.2107738110674764	0.9923952498857106	0.0384811423813969	0.2074291796279848	0.0540968090877333
1.461	0.0566476349219047	0.2107839179253146	0.9933244805055657	0.0384524757690874	0.2098423166192128	0.0542780963968072
1.462	0.0565125421538354	0.2107879816417412	0.994216125340653	0.0384319110346099	0.2122422875033164	0.0544410357831819
1.463	0.0563666231258478	0.2107860387621856	0.995064885004161	0.0384194329953013	0.2146283764066955	0.0545859270463739
1.464	0.056210021090089	0.210778137014768	0.9958653820449	0.0384150177961924	0.2169998683622314	0.0547130839373352
1.465	0.0560428904120976	0.2107643353215767	0.9966121721233948	0.0384186329551829	0.2193560486670103	0.0548228331126569
1.466	0.0558653962455048	0.2107447037934473	0.9972997554046712	0.0384302374091505	0.2216962022544516	0.0549155131124623
1.467	0.0556777142110849	0.2107193237101108	0.9979225881463192	0.0384497815605588	0.2240196130842883	0.0549914733630055
1.468	0.0554800300808125	0.2106882874872427	0.9984750944585008	0.0384772073241589	0.2263255635534183	0.0550510732048022
1.469	0.0552725394675153	0.2106516986316347	0.998951678211648	0.0385124481734047	0.2286133339300728	0.0550946809470107
1.47	0.0550554475207952	0.210609671685669	0.9993467350657088	0.0385554291861961	0.2308822018131857	0.0551226729487238
1.471	0.0548289686298072	0.210562332161652	0.9996546645946628	0.0386060670896731	0.2331314416181427	0.0551354327277355
1.472	0.054593326133378	0.2105098164664577	0.999869882479541	0.0386642703039148	0.235360324089597	0.0551333500973204
1.473	0.0543487520378485	0.2104522718167495	0.9999868327432264	0.0387299389844143	0.237568115841433	0.0551168203314316
1.474	0.0540954867428929	0.2103898561444781	1.0	0.0388029650634036	0.239754078923652	0.0550862433587272
1.475	0.0538337787753893	0.2103227379918977	0.9999039216924568	0.0388832322901295	0.241917470415679	0.055042022985686
1.476	0.0535638845313629	0.2102510963948971	0.9996932002878492	0.0389706162703803	0.244057542045452	0.0549845661490367
1.477	0.0532860680257722	0.2101751207528891	0.9993625154056336	0.0390649845056167	0.2461735398336755	0.0549142821975826
1.478	0.0530006006499199	0.2100950106831572	0.9989066358481	0.0391661964322344	0.2482647037627229	0.0548315822034585
1.479	0.0527077609360288	0.2100109758576116	0.9983204315059204	0.0392741034615432	0.2503302674699078	0.0547368783027549
1.48	0.052407834328544	0.209923235819511	0.9975988851108148	0.0393885490211826	0.252369457965043	0.0546305830654598
1.481	0.0521011129615459	0.2098320197778561	0.9967371038071012	0.0395093685987114	0.2543814953726073	0.0545131088945642
1.482	0.0517878954415654	0.2097375663771507	0.9957303305141284	0.0396363897880804	0.256365592699633	0.0543848674541694
1.483	0.0514684866350571	0.2096401234403959	0.9945739550495976	0.0397694323398708	0.2583209556317181	0.0542462691262863
1.484	0.0511431974597361	0.209539947683786	0.9932635249819628	0.0399083082159473	0.2602467823611155	0.0540977224960466
1.485	0.0508123446789568	0.2094373044012939	0.9917947561778298	0.0400528216493578	0.2621422634521909	0.053939633864896
1.486	0.0504762506984865	0.2093324671175918	0.9901635430099036	0.0402027692100535	0.2640065817505093	0.0537724067913487
1.487	0.0501352433650001	0.2092257172076986	0.9883659681916344	0.0403579398771469	0.2658389123420638	0.0535964416588054
1.488	0.0497896557658427	0.2091173434816088	0.9863983122075344	0.0405181151182788	0.2676384225689581	0.0534121352698867
1.489	0.0494398260296931	0.2090076417327959	0.9842570623109512	0.0406830689767458	0.2694042721072395	0.0532198804666896
1.49	0.0490860971278643	0.2088969142498533	0.9819389210642934	0.0408525681669314	0.2711356131118993	0.0530200657764052
1.491	0.0487288166759929	0.2087854692915606	0.9794408144001722	0.0410263721786361	0.2728315904332392	0.0528130750816341
1.492	0.0483683367359483	0.2086736205258474	0.976759899184534	0.0412042333906685	0.2744913419080599	0.05259928731483
1.493	0.0480050136176892	0.2085616864332443	0.973893570265377	0.0413858971942139	0.2761139987282663	0.0523790761761604
1.494	0.0476392076808568	0.2084499896757103	0.9708394669906208	0.0415711021262659	0.2776986858886421	0.0521528098740102
1.495	0.0472712831358631	0.2083388564315449	0.967595479178516	0.0417595800134655	0.2792445227146312	0.0519208508872701
1.496	0.0469016078442381	0.2082286156978526	0.9641597525218468	0.0419510561265782	0.2807506234700168	0.0516835557483823
1.497	0.0465305531180389	0.2081195985630146	0.960530693406278	0.0421452493458234	0.2822160980435364	0.0514412748461124
1.498	0.0461584935181187	0.2080121374518169	0.956706973124372	0.0423418723372904	0.2836400527125635	0.0511943522468638
1.499	0.045785806651121	0.2079065653466938	0.952687531469007	0.0425406317407195	0.2850215909810429	0.0509431255333365
1.5	0.0454128729650538	0.2078032149887034	0.9484715796945709	0.0427412283688571	0.2863598144880788	0.0506879256592309
1.5010000000000001	0.0450400755433769	0.2077024180617578	0.944058602838028	0.0429433574187163	0.2876538239826649	0.0504290768186649
1.502	0.044667799897566	0.2076045043640237	0.9394483613967964	0.0431467086948815	0.2889027203594412	0.0501668963289755
1.5030000000000001	0.0442964337580933	0.2075098009703606	0.9346408923645604	0.043350966845053	0.2901056057499543	0.0499016945256665
1.504	0.043926366863936	0.2074186313895827	0.9296365096301724	0.0435558116078742	0.2912615846638207	0.0496337746683343
1.5050000000000001	0.0435579907506398	0.207331314720551	0.9244358037480244	0.0437609180729696	0.2923697651745185	0.0493634328566744
1.506	0.0431916985370711	0.2072481648102501	0.919039641092253	0.0439659569531244	0.293429260145113	0.0490909579558062
1.5070000000000001	0.0428278847110153	0.2071694894168157	0.9134491624105482	0.0441705948682672	0.2944391884899667	0.0488166315304397
1.508	0.0424669449137421	0.2070955893799703	0.9076657807974255	0.0443744946409772	0.2953986764693062	0.048540727787601
1.5090000000000001	0.0421092757237595	0.2070267578011274	0.901691179109072	0.0445773156031644	0.2963068590142353	0.0482635135278535
1.51	0.0417552744400346	0.2069632792354256	0.8955273068436045	0.0447787139136629	0.2971628810804316	0.0479852481050045
1.5110000000000001	0.041405338864988	0.2069054288978702	0.8891763765113758	0.0449783428865526	0.2979658990291492	0.0477061833944523
1.512	0.0410598670876665	0.2068534718858748	0.8826408595194812	0.0451758533301384	0.2987150820343273	0.0474265637702557
1.5130000000000001	0.0407192572675449	0.2068076624205616	0.8759234815939895	0.0453708938966021	0.2994096135145877	0.0471466260910245
1.514	0.0403839074194349	0.2067682431091896	0.8690272177625649	0.0455631114423165	0.3000486925889172	0.0468665996946981
1.5150000000000001	0.0400542151999508	0.2067354442313365	0.8619552869176398	0.045752151398995	0.300631535554709	0.0465867064022866
1.516	0.0397305776958709	0.206709483051579	0.8547111459802637	0.0459376581557398	0.3011573773866349	0.0463071605306318
1.5170000000000001	0.0394133912147266	0.2066905631609751	0.8472984836833622	0.0461192754522504	0.3016254732544498	0.0460281689143185
1.518	0.0391030510777076	0.2066788738501586	0.839721213993753	0.0462966467834212	0.3020351000574122	0.0457499309368255
1.5190000000000001	0.0387999514150104	0.2066745895161553	0.8319834691917387	0.046469415815609	0.3023855579726464	0.0454726385710095
1.52	0.0385044849636295	0.2066778691050133	0.82408959262674	0.0466372268147786	0.3026761720143244	0.0451964764289136
1.5210000000000001	0.0382170428674994	0.2066888555918533	0.8160441311685234	0.0467997250867088	0.3029062936003695	0.0449216218208244
1.522	0.0379380144798964	0.2067076755000131	0.8078518273738561	0.0469565574293193	0.3030753021233586	0.0446482448234355
1.5230000000000001	0.037667787167922	0.2067344384606567	0.7995176113896572	0.0471073725970947	0.3031826065227232	0.0443765083568978
1.524	0.0374067461188689	0.2067692368145961	0.7910465926139496	0.047251821777579	0.3032276468556533	0.0441065682705717
1.5250000000000001	0.0371552741481942	0.2068121452579977	0.7824440511361063	0.0473895590798519	0.3032098958643736	0.0438385734372197
1.526	0.0369137515088366	0.2068632205336139	0.7737154289783503	0.0475202420349321	0.3031288605373535	0.0435726658553988
1.5270000000000001	0.0366825557015308	0.2069225011694252	0.7648663211602629	0.0476435321080408	0.3029840836618462	0.0433089807597121
1.528	0.0364620612856606	0.2069900072663992	0.7559024666086768	0.0477590952226212	0.3027751453650142	0.043047646738655
1.5290000000000001	0.0362526396902403	0.2070657403368755	0.7468297389338376	0.0478666022959734	0.3025016646408093	0.0427887858597138
1.53	0.0360546590245684	0.2071496831948865	0.7376541370913594	0.047965729786299	0.3021633008597439	0.0425325138014281
1.5310000000000001	0.0358684838881037	0.2072417998995057	0.728381775947503	0.0480561602508381	0.301759755258493	0.0422789399920159
1.532	0.0356944751792404	0.2073420357519108	0.7190188767639878	0.0481375829148199	0.3012907724061522	0.0420281677541772
1.5330000000000001	0.0355329899026754	0.2074503173464718	0.7095717576175503	0.0482096942508113	0.3007561416439274	0.0417802944555449
1.534	0.0353843809750808	0.2075665526756711	0.7000468237685513	0.0482721985680806	0.3001556984951078	0.0415354116642122
1.5350000000000001	0.0352489970288595	0.20769063128787	0.6904505579923013	0.048324808611503	0.2994893260423328	0.0412936053087306
1.536	0.035127182213752	0.2078224244965273	0.6807895108865162	0.0483672461694963	0.298756956269147	0.0410549558418651
1.537	0.0350192759960277	0.20796178563892	0.6710702911679136	0.0483992426903018	0.2979585713625997	0.0408195384074259
1.538	0.0349256129550214	0.2081085503821676	0.6612995559711216	0.0484205399059025	0.2970942049732323	0.0405874230094566
1.539	0.0348465225766782	0.2082625370743958	0.6514840011641266	0.0484308904627565	0.2961639434281651	0.0403586746830672
1.54	0.0347823290437476	0.2084235471383158	0.6416303516940186	0.048430058558543	0.2951679268923572	0.0401333536662333
1.541	0.0347333510223027	0.2085913655045517	0.6317453519779644	0.0484178205840795	0.2941063504723823	0.039911515571846
1.542	0.0346999014442235	0.2087657610812617	0.6218357563541315	0.0483939657697064	0.2929794652565431	0.0396932115592973
1.543	0.0346822872853323	0.2089464872566907	0.6119083196076264	0.0483582968352477	0.2917875792847366	0.0394784885048525
1.544	0.0346808093388351	0.2091332824307175	0.6019697875863199	0.0483106306427634	0.2905310584413598	0.0392673891700809
